<svg xmlns="http://www.w3.org/2000/svg" viewBox="0 0 72 72" width="72" height="72">
    <rect width="72" height="72" rx="14" fill="#15191d"/>
    <!-- Radio Waves -->
    <path d="M16 22C19 18 24 15 36 15C48 15 53 18 56 22" fill="none" stroke="#552222" stroke-width="2.5" stroke-linecap="round"/>
    <path d="M22 27C25 24 29 22 36 22C43 22 47 24 50 27" fill="none" stroke="#552222" stroke-width="2" stroke-linecap="round"/>
    <!-- Speaker icon -->
    <path d="M26 33H20V43H26L34 49V27L26 33Z" fill="#ff3b30" opacity="0.6"/>
    <path d="M39 33C41 35 42 38 42 38C42 38 41 41 39 43" fill="none" stroke="#ff3b30" stroke-width="2" stroke-linecap="round" opacity="0.6"/>
    <!-- Red Slash -->
    <line x1="18" y1="18" x2="54" y2="54" stroke="#ff3b30" stroke-width="4.5" stroke-linecap="round"/>
</svg>
